<?xml version="1.0" encoding="utf-8"?>
<!-- Generator: Adobe Illustrator 25.2.1, SVG Export Plug-In . SVG Version: 6.00 Build 0)  -->
<svg version="1.1" id="Слой_1" xmlns="http://www.w3.org/2000/svg" xmlns:xlink="http://www.w3.org/1999/xlink" x="0px" y="0px"
	 viewBox="0 0 96 96" style="enable-background:new 0 0 96 96;" xml:space="preserve">
<style type="text/css">
	.st0{fill:#2E6BE5;}
	.st1{fill:#FFFFFF;}
</style>
<g>
	<path class="st0" d="M8.6,48c0-7.1-0.1-14.3,0-21.4c0-2.9,0.6-5.9,2-8.5c2.3-4.5,5.9-7.3,10.6-8.6c1.5-0.4,3.1-0.6,4.7-0.6
		c14.2-0.1,28.4-0.2,42.7-0.2c3.3,0,6.5,0.5,9.5,2c4.7,2.4,7.6,6.3,8.8,11.4c0.5,2,0.6,4.2,0.6,6.3c0,13.6,0.1,27.2,0,40.9
		c0,5.1-1.6,9.8-5.4,13.4c-2.4,2.2-5.2,3.7-8.4,4.2c-2.4,0.3-4.8,0.5-7.2,0.6c-12.9,0.1-25.8,0.1-38.7,0c-3.3,0-6.5-0.5-9.5-1.9
		c-2.8-1.4-5.1-3.4-6.7-6c-1.6-2.6-2.5-5.4-2.6-8.4c-0.1-3.5-0.2-7-0.2-10.5C8.6,56.3,8.6,52.1,8.6,48z M41.2,37.9
		c0,9.6,0,19,0,28.4c3.3,0,6.4,0,9.6,0c0-0.4,0-0.7,0-1.1c0-3.4,0-6.9,0-10.3c0-0.7,0.2-0.9,0.9-0.9c4,0,8.1,0,12.1,0
		c0.3,0,0.7,0,1,0c0-2.9,0-5.7,0-8.5c-0.4,0-0.7,0-1.1,0c-4,0-8,0-12.1,0c-0.7,0-1-0.2-0.9-0.9c0-1.7,0.1-3.5,0-5.2c0-0.8,0.2-1,1-1
		c5.4,0,10.9,0,16.3,0c0.3,0,0.7,0,1,0c0-2.9,0-5.6,0-8.5c-0.4,0-0.8,0-1.1,0c-9.9,0-19.8,0-29.7,0c-1.3,0-2.6,0.1-3.8,0.4
		c-6,1.4-8.9,5.6-9.1,11.1c0,2.1,0.5,4.1,1.6,6c1.7,2.8,4.2,4.5,7.3,5.4c0.7-2.5,1.4-4.9,2.2-7.3c0.2-0.7,0.1-1-0.5-1.4
		c-1.2-0.7-1.7-1.9-1.5-3.2c0.1-1.4,1-2.4,2.3-2.7C38.2,38,39.6,38,41.2,37.9z"/>
	<path class="st1" d="M41.2,37.9c-1.6,0.1-3.1,0.1-4.4,0.3c-1.4,0.2-2.2,1.3-2.3,2.7c-0.1,1.3,0.4,2.4,1.5,3.2
		c0.6,0.4,0.7,0.7,0.5,1.4c-0.8,2.4-1.4,4.8-2.2,7.3c-3.1-0.9-5.6-2.6-7.3-5.4c-1.1-1.9-1.6-3.9-1.6-6c0.1-5.5,3.1-9.6,9.1-11.1
		C35.7,30,37,30,38.2,30c9.9,0,19.8,0,29.7,0c0.4,0,0.7,0,1.1,0c0,2.8,0,5.6,0,8.5c-0.4,0-0.7,0-1,0c-5.4,0-10.9,0-16.3,0
		c-0.8,0-1,0.2-1,1c0.1,1.7,0.1,3.5,0,5.2c0,0.7,0.2,0.9,0.9,0.9c4,0,8,0,12.1,0c0.3,0,0.7,0,1.1,0c0,2.8,0,5.6,0,8.5
		c-0.3,0-0.7,0-1,0c-4,0-8.1,0-12.1,0c-0.7,0-0.9,0.2-0.9,0.9c0,3.4,0,6.9,0,10.3c0,0.3,0,0.7,0,1.1c-3.2,0-6.4,0-9.6,0
		C41.2,56.9,41.2,47.5,41.2,37.9z"/>
</g>
</svg>
