<?xml version="1.0" encoding="utf-8"?>
<!-- Generator: Adobe Illustrator 25.2.1, SVG Export Plug-In . SVG Version: 6.00 Build 0)  -->
<svg version="1.1" id="Слой_1" xmlns="http://www.w3.org/2000/svg" xmlns:xlink="http://www.w3.org/1999/xlink" x="0px" y="0px"
	 viewBox="0 0 96 96" style="enable-background:new 0 0 96 96;" xml:space="preserve">
<style type="text/css">
	.st0{fill-rule:evenodd;clip-rule:evenodd;fill:#FFFFFF;}
	.st1{fill-rule:evenodd;clip-rule:evenodd;fill:#34A853;}
	.st2{fill-rule:evenodd;clip-rule:evenodd;fill:#FBBC04;}
	.st3{fill-rule:evenodd;clip-rule:evenodd;fill:#4285F4;}
	.st4{fill-rule:evenodd;clip-rule:evenodd;fill:#1A73E8;}
	.st5{fill-rule:evenodd;clip-rule:evenodd;fill:#EA4335;}
</style>
<g>
	<circle class="st0" cx="47.4" cy="33.4" r="17.7"/>
	<g>
		<path class="st1" d="M33.3,70.7c2.9,3.6,5.9,8.2,7.4,11c1.9,3.6,2.7,6,4.1,10.3c0.8,2.4,1.6,3.1,3.2,3.1c1.8,0,2.6-1.2,3.2-3.1
			c1.3-4.1,2.3-7.2,3.9-10.1c3.2-5.7,7.1-10.7,11-15.6c1.1-1.4,7.9-9.4,10.9-15.7c0,0,3.7-6.9,3.7-16.6c0-9.1-3.7-15.4-3.7-15.4
			l-10.7,2.9L60,38.5l-1.6,2.3L58,41.3l-0.4,0.5l-0.7,0.9l-1.1,1.1L50,48.4l-14.4,8.3L33.3,70.7z"/>
		<path class="st2" d="M18.4,49.4c3.5,8,10.3,15.1,14.9,21.3l24.4-28.9c0,0-3.4,4.5-9.7,4.5c-6.9,0-12.6-5.5-12.6-12.5
			c0-4.8,2.9-8.1,2.9-8.1l-16.5,4.4L18.4,49.4z"/>
		<path class="st3" d="M57.9,2.4C66,5,73,10.5,77.1,18.6L57.6,41.8c0,0,2.9-3.3,2.9-8.1c0-7.1-6-12.5-12.5-12.5
			c-6.2,0-9.7,4.5-9.7,4.5l0-14.6L57.9,2.4z"/>
		<path class="st4" d="M22.8,12.6C27.7,6.9,36.2,0.9,47.9,0.9c5.7,0,10,1.5,10,1.5L38.3,25.7l-13.9,0L22.8,12.6z"/>
		<path class="st5" d="M18.4,49.4c0,0-3.2-6.4-3.2-15.5c0-8.7,3.4-16.2,7.7-21.2l15.5,13L18.4,49.4z"/>
	</g>
</g>
</svg>
