<?xml version="1.0" encoding="utf-8"?>
<!-- Generator: Adobe Illustrator 25.2.1, SVG Export Plug-In . SVG Version: 6.00 Build 0)  -->
<svg version="1.1" id="Слой_1" xmlns="http://www.w3.org/2000/svg" xmlns:xlink="http://www.w3.org/1999/xlink" x="0px" y="0px"
	 viewBox="0 0 96 96" style="enable-background:new 0 0 96 96;" xml:space="preserve">
<style type="text/css">
	.st0{fill-rule:evenodd;clip-rule:evenodd;fill:#FF4433;}
	.st1{fill-rule:evenodd;clip-rule:evenodd;fill:#FFFFFF;}
</style>
<g>
	<path class="st0" d="M48,5.5c-18.8,0-34,15.2-34,34c0,9.4,3.8,17.9,10,24.1c6.2,6.2,20.7,15.1,21.5,24.4c0.1,1.4,1.1,2.6,2.6,2.6
		s2.4-1.1,2.6-2.6c0.9-9.4,15.4-18.3,21.5-24.4c6.2-6.2,10-14.7,10-24.1C82,20.7,66.8,5.5,48,5.5z"/>
	<path class="st1" d="M48,51.4c6.6,0,11.9-5.3,11.9-11.9c0-6.6-5.3-11.9-11.9-11.9c-6.6,0-11.9,5.3-11.9,11.9
		C36.1,46.1,41.4,51.4,48,51.4z"/>
</g>
</svg>
