<?xml version="1.0" encoding="utf-8"?>
<!-- Generator: Adobe Illustrator 25.2.1, SVG Export Plug-In . SVG Version: 6.00 Build 0)  -->
<svg version="1.1" id="Слой_1" xmlns="http://www.w3.org/2000/svg" xmlns:xlink="http://www.w3.org/1999/xlink" x="0px" y="0px"
	 viewBox="0 0 96 96" style="enable-background:new 0 0 96 96;" xml:space="preserve">
<style type="text/css">
	.st0{fill:#FFFFFF;}
	.st1{fill:#AFCA0B;}
</style>
<g>
	<ellipse class="st0" cx="48.6" cy="48" rx="39.7" ry="38.6"/>
	<g id="g14">
		<g id="g20" transform="translate(486.8061,62.337)">
			<path id="path22" class="st1" d="M-398.5-14.3c0-4.8-0.9-9.3-2.6-13.5c-0.4,13.8-15.1,24.6-23.7,31.7h21.5
				C-400.3-1.6-398.5-7.8-398.5-14.3 M-414.1-44.8c-6.8-5.1-15.4-8.2-24.7-8.2c-22.2,0-40.3,17.3-40.3,38.6s18,38.6,40.3,38.6
				c10.2,0,19.5-3.7,26.5-9.6h-29.1l-0.1-8.2c17.6-14.7,28.3-24.6,28.3-34.1c0-3.6-1.4-8-7.8-8c-5,0-9.9,2.8-9,14.5h-10.2
				c-2.6-13.5,5.1-24.3,19.8-24.3C-418.1-45.6-416-45.3-414.1-44.8"/>
		</g>
	</g>
</g>
</svg>
