<?xml version="1.0" encoding="utf-8"?>
<!-- Generator: Adobe Illustrator 17.1.0, SVG Export Plug-In . SVG Version: 6.00 Build 0)  -->
<!DOCTYPE svg PUBLIC "-//W3C//DTD SVG 1.1//EN" "http://www.w3.org/Graphics/SVG/1.1/DTD/svg11.dtd">
<svg version="1.1" id="Layer_1" xmlns="http://www.w3.org/2000/svg" xmlns:xlink="http://www.w3.org/1999/xlink" x="0px" y="0px"
	 viewBox="0 0 64 64" enable-background="new 0 0 64 64" xml:space="preserve">
<polyline fill="none" stroke="#fcee21" stroke-width="2" stroke-linecap="round" stroke-linejoin="round" stroke-miterlimit="10" points="
	29.2,53.9 5.4,53.9 5.4,58.8 33.9,58.8 "/>
<polyline fill="none" stroke="#fcee21" stroke-width="2" stroke-linecap="round" stroke-linejoin="round" stroke-miterlimit="10" points="
	51.1,26.7 51.1,6.1 1.8,6.1 1.8,53.9 28.3,53.9 "/>
<path fill="none" d="M26.7,43.9c0-10,8.1-18.1,18.1-18.1s18.1,8.1,18.1,18.1c0,10-8.1,18.1-18.1,18.1S26.7,53.9,26.7,43.9"/>
<circle fill="none" stroke="#fcee21" stroke-width="2" stroke-linecap="round" stroke-linejoin="round" stroke-miterlimit="10" cx="44.7" cy="43.9" r="18.1"/>
<circle fill="none" stroke="#fcee21" stroke-width="2" stroke-linecap="round" stroke-linejoin="round" stroke-miterlimit="10" cx="44.7" cy="43.9" r="13.9"/>
<line fill="none" stroke="#fcee21" stroke-width="2" stroke-linecap="round" stroke-linejoin="round" stroke-miterlimit="10" x1="30.8" y1="44.3" x2="34.4" y2="44.3"/>
<line fill="none" stroke="#fcee21" stroke-width="2" stroke-linecap="round" stroke-linejoin="round" stroke-miterlimit="10" x1="54.6" y1="44.3" x2="58.1" y2="44.3"/>
<line fill="none" stroke="#fcee21" stroke-width="2" stroke-linecap="round" stroke-linejoin="round" stroke-miterlimit="10" x1="44.9" y1="57.3" x2="44.9" y2="53.8"/>
<line fill="none" stroke="#fcee21" stroke-width="2" stroke-linecap="round" stroke-linejoin="round" stroke-miterlimit="10" x1="44.9" y1="34" x2="44.9" y2="30.5"/>
<polyline fill="none" stroke="#fcee21" stroke-width="2" stroke-linecap="round" stroke-linejoin="round" stroke-miterlimit="10" points="
	41.3,41.7 44.7,45.8 51.6,39.8 "/>
<circle fill="none" stroke="#fcee21" stroke-width="2" stroke-linecap="round" stroke-linejoin="round" stroke-miterlimit="10" cx="10.1" cy="23.7" r="2"/>
<circle fill="none" stroke="#fcee21" stroke-width="2" stroke-linecap="round" stroke-linejoin="round" stroke-miterlimit="10" cx="21.1" cy="23.7" r="2"/>
<circle fill="none" stroke="#fcee21" stroke-width="2" stroke-linecap="round" stroke-linejoin="round" stroke-miterlimit="10" cx="10.1" cy="32.4" r="2"/>
<circle fill="none" stroke="#fcee21" stroke-width="2" stroke-linecap="round" stroke-linejoin="round" stroke-miterlimit="10" cx="21.1" cy="32.4" r="2"/>
<circle fill="none" stroke="#fcee21" stroke-width="2" stroke-linecap="round" stroke-linejoin="round" stroke-miterlimit="10" cx="10.1" cy="40.7" r="2"/>
<circle fill="none" stroke="#fcee21" stroke-width="2" stroke-linecap="round" stroke-linejoin="round" stroke-miterlimit="10" cx="21.1" cy="40.7" r="2"/>
<circle fill="none" stroke="#fcee21" stroke-width="2" stroke-linecap="round" stroke-linejoin="round" stroke-miterlimit="10" cx="32" cy="23.7" r="2"/>
<path fill="none" stroke="#fcee21" stroke-width="2" stroke-linecap="round" stroke-linejoin="round" stroke-miterlimit="10" d="
	M10.9,2.7H9.8c-0.9,0-1.7,0.7-1.7,1.7v6.1h4.4V4.3C12.5,3.4,11.8,2.7,10.9,2.7z"/>
<path fill="none" stroke="#fcee21" stroke-width="2" stroke-linecap="round" stroke-linejoin="round" stroke-miterlimit="10" d="
	M21.6,2.7h-1.1c-0.9,0-1.7,0.7-1.7,1.7v6.1h4.4V4.3C23.3,3.4,22.5,2.7,21.6,2.7z"/>
<path fill="none" stroke="#fcee21" stroke-width="2" stroke-linecap="round" stroke-linejoin="round" stroke-miterlimit="10" d="
	M32.3,2.7h-1.1c-0.9,0-1.7,0.7-1.7,1.7v6.1H34V4.3C34,3.4,33.2,2.7,32.3,2.7z"/>
<path fill="none" stroke="#fcee21" stroke-width="2" stroke-linecap="round" stroke-linejoin="round" stroke-miterlimit="10" d="
	M43.1,2.7H42c-0.9,0-1.7,0.7-1.7,1.7v6.1h4.4V4.3C44.7,3.4,44,2.7,43.1,2.7z"/>
<line fill="none" stroke="#fcee21" stroke-width="2" stroke-linecap="round" stroke-linejoin="round" stroke-miterlimit="10" x1="1.8" y1="15.4" x2="51.1" y2="15.4"/>
</svg>
